<?xml version="1.0" ?><svg data-name="Your Icons" id="Your_Icons" viewBox="0 0 48 48" xmlns="http://www.w3.org/2000/svg"><defs><style>.cls-1{fill:#939598;}</style></defs><title/><path class="cls-1" d="M37,18H30.87l-4-7.95a1,1,0,0,0-1.78.9L28.63,18H19.37l3.52-7a1,1,0,1,0-1.78-.9l-4,8H11a3,3,0,0,0-3,3v.45A2.55,2.55,0,0,0,10.55,24l3.56,11.21A4,4,0,0,0,17.92,38H30.08a4,4,0,0,0,3.81-2.79L37.45,24A2.55,2.55,0,0,0,40,21.45V21A3,3,0,0,0,37,18Zm1,3.45a.54.54,0,0,1-.55.55,2,2,0,0,0-1.9,1.39L32,34.61A2,2,0,0,1,30.08,36H17.92A2,2,0,0,1,16,34.61L12.45,23.39A2,2,0,0,0,10.55,22a.54.54,0,0,1-.55-.55V21a1,1,0,0,1,1-1h5.13l-.76,1.52a1.48,1.48,0,0,0-.36.89.11.11,0,0,1,0,.05v0a1.5,1.5,0,1,0,2.62-1L18.37,20H29.63l.75,1.51a1.5,1.5,0,1,0,2.62,1v0a.11.11,0,0,1,0-.05,1.48,1.48,0,0,0-.36-.89L31.87,20H37a1,1,0,0,1,1,1Z"/><path class="cls-1" d="M24,25a1,1,0,0,0-1,1v6a1,1,0,0,0,2,0V26A1,1,0,0,0,24,25Z"/><path class="cls-1" d="M19,25.68a1,1,0,0,0-1.9.64l2,6A1,1,0,0,0,20,33a1.25,1.25,0,0,0,.32,0A1,1,0,0,0,21,31.68Z"/><path class="cls-1" d="M30.32,25.05a1,1,0,0,0-1.27.63l-2,6A1,1,0,0,0,27.68,33,1.25,1.25,0,0,0,28,33a1,1,0,0,0,.95-.68l2-6A1,1,0,0,0,30.32,25.05Z"/></svg>